<svg xmlns="http://www.w3.org/2000/svg" viewBox="0 0 24 24" width="120" height="120">
  <circle cx="12" cy="12" r="12" fill="#25D366"/>
  <path d="M17.2 15.1c-.4-.2-2.4-1.2-2.8-1.4-.4-.2-.7-.2-1 .2-.3.4-1.2 1.4-1.4 1.6-.2.2-.4.3-.8.1-.4-.2-1.6-.6-3.1-1.9-1.2-1-2-2.2-2.2-2.6-.2-.4 0-.6.2-.8.2-.2.4-.6.6-.9.2-.3.2-.6 0-.9-.2-.2-.8-1.9-1.1-2.6-.3-.7-.6-.6-.8-.6-.2 0-.5 0-.8 0-.2 0-.6.1-.9.6-.3.5-1 2.1-1 4.1 0 2 1 3.9 1.2 4.2.2.3 2 3.2 5.2 4.5 3.2 1.3 3.2 0 3.8-1.3.6-1.3 1.2-1.1 2-1 .8.1 2.6 1 3 2.1.4 1.1.4 2-.8 2.6-1.2.6-4.6 1.6-8.8-1.3-4.2-2.9-6-7-5.1-10.6.9-3.6 4.3-5.6 7.8-5.6 3.4 0 6.4 2.5 6.9 6 .5 3.5-1.4 6.3-4.9 7.9z" fill="#fff"/>
</svg>
